<svg width="365" height="560" xmlns="http://www.w3.org/2000/svg">

 <g>
  <title>background</title>
  <rect fill="none" id="canvas_background" height="402" width="582" y="-1" x="-1"/>
 </g>
 <g>
  <title>Layer 1</title>
  <g id="svg_1">
   <path stroke-width="0" id="svg_2" d="m182.9,551.7c0,0.1 0.2,0.3 0.2,0.3s175.2,-269 175.2,-357.4c0,-130.1 -88.8,-186.7 -175.4,-186.9c-86.6,0.2 -175.4,56.8 -175.4,186.9c0,88.4 175.3,357.4 175.3,357.4s0.1,-0.3 0.1,-0.3zm-60.7,-364.5c0,-33.6 27.2,-60.8 60.8,-60.8c33.6,0 60.8,27.2 60.8,60.8s-27.3,60.8 -60.9,60.8c-33.5,0 -60.7,-27.2 -60.7,-60.8z" fill="#e13cb0"/>
  </g>
 </g>
</svg>